<svg data-v-0dd9719b="" version="1.0" xmlns="http://www.w3.org/2000/svg" xmlns:xlink="http://www.w3.org/1999/xlink" width="100%" height="100%" viewBox="0 0 340.000000 250.000000" preserveAspectRatio="xMidYMid meet" color-interpolation-filters="sRGB" style="margin: auto;"> <rect data-v-0dd9719b="" x="0" y="0" width="100%" height="100%" fill="#ffffff" fill-opacity="1" class="background"></rect> <rect data-v-0dd9719b="" x="0" y="0" width="100%" height="100%" fill="url(#watermark)" fill-opacity="1" class="watermarklayer"></rect> <g data-v-0dd9719b="" class="iconmbgsvg" transform="translate(82.91000366210938,76.12945175170898)"><g fill="#000000" hollow-target="textNormalTran"><g opacity="0.55" transform="translate(30.839996337890625,0)"><g><rect fill="#000000" fill-opacity="0" stroke-width="2" x="0" y="0" width="112.5" height="97.74109470026063" class="image-rect"></rect> <svg x="0" y="0" width="112.5" height="97.74109470026063" filtersec="colorsb8640199817" class="image-svg-svg primary" style="overflow: visible;"><svg xmlns="http://www.w3.org/2000/svg" viewBox="0 0 115.0999984741211 100"><g fill-rule="evenodd"><path d="M24 71.92h12.48l29.16-50.17 37 64.18h12.46L65.67.28C55.46 17.84 51.25 25.09 24 71.92z" fill="#703fec"></path><path d="M82.68 86.07L76.5 75.29l-57.9-.17C57.91 7 46.27 27.19 55.73 10.8L49.54 0 0 85.83z" fill="#00b9e4"></path><path d="M65.67 28.12L59.45 38.9l28.86 50.34h-74L8.07 100h98.81z" fill="#92d400"></path></g></svg></svg> <!----></g></g> <g transform="translate(0,27.11054801940918)"><g data-gra="path-name" fill-rule="" class="tp-name"><g transform="scale(1)"><g><path d="M31.08 0Q31.43 0 31.69-0.26 31.96-0.52 31.96-0.87L31.96-0.87 31.96-4.82 8.83-4.82 8.83-18.65 29.86-18.65Q30.21-18.65 30.47-18.91 30.74-19.17 30.74-19.52L30.74-19.52 30.74-23.42 8.83-23.42 8.72-35.91 30.15-35.91Q30.5-35.91 30.77-36.17 31.03-36.43 31.03-36.78L31.03-36.78 31.03-40.67 2.91-40.67 2.91 0 31.08 0ZM52.58 0Q52.93 0 53.08-0.12 53.22-0.23 53.34-0.52L53.34-0.52 65.36-32.77 59.79-32.77 56.82-24.69Q54.5-18.48 53.08-14.5 51.65-10.52 50.55-6.57L50.55-6.57Q49.39-10.81 48.02-14.85 46.66-18.88 44.04-26.09L44.04-26.09Q42.65-29.75 41.6-32.77L41.6-32.77 35.73-32.77 47.93 0 52.58 0ZM74.49-34.63Q74.84-34.63 75.1-34.89 75.36-35.15 75.36-35.5L75.36-35.5 75.36-40.73 70.01-40.73 70.01-34.63 74.49-34.63ZM74.49 0Q74.84 0 75.1-0.26 75.36-0.52 75.36-0.87L75.36-0.87 75.36-31.9 70.01-31.9 70.01 0 74.49 0ZM103.94-16.44Q103.94-19.35 102.9-22.05 101.85-24.75 99.94-26.44 98.02-28.12 95.58-28.12L95.58-28.12Q91.16-28.12 89.24-24.52 87.33-20.92 87.33-16.21L87.33-16.21Q87.33-11.5 89.45-7.9 91.57-4.3 96.1-4.3L96.1-4.3Q100.69-4.3 102.32-8.13 103.94-11.97 103.94-16.44L103.94-16.44ZM104.53-4.53Q101.21 0 95.58 0L95.58 0Q91.1 0 87.91-2.38L87.91-2.38Q84.77-4.76 83.26-8.6L83.26-8.6Q81.75-12.43 81.75-16.68L81.75-16.68Q81.75-20.8 83.26-24.46L83.26-24.46Q84.71-27.95 87.85-30.21L87.85-30.21Q90.93-32.42 95.35-32.42L95.35-32.42Q100.69-32.42 104.18-28.24L104.18-28.24 104.18-43.52 109.58-43.52 109.58-0.87Q109.58-0.52 109.32-0.26 109.06 0 108.71 0L108.71 0 104.53 0 104.53-4.53ZM140.43-10.87Q138.52-7.44 136.22-6.28 133.93-5.11 131.54-5.11L131.54-5.11Q129.1-5.11 126.95-6.28 124.8-7.44 123.47-9.64 122.13-11.85 122.13-14.82L122.13-14.82 145.6-14.82Q145.66-15.46 145.66-16.27L145.66-16.27Q145.66-21.44 143.63-25.13 141.59-28.82 138.31-30.68 135.03-32.54 131.31-32.54L131.31-32.54Q127.53-32.54 124.16-30.62 120.79-28.7 118.7-24.95 116.61-21.21 116.61-15.98L116.61-15.98Q116.61-10.98 118.76-7.35 120.91-3.72 124.4-1.86 127.88 0 131.78 0L131.78 0Q136.25 0 139.94-2.5 143.63-5 145.2-9.7L145.2-9.7 140.43-10.87ZM122.42-19.17Q122.6-21.96 123.9-24 125.21-26.03 127.21-27.1 129.22-28.18 131.37-28.18L131.37-28.18Q134.68-28.18 137.15-25.86 139.62-23.53 139.97-19.17L139.97-19.17 122.42-19.17ZM155.95 0Q156.41 0 156.61-0.2 156.82-0.41 156.82-0.87L156.82-0.87 156.82-17.31Q156.82-20.8 157.95-23.24 159.08-25.68 160.88-26.9 162.69-28.12 164.66-28.12L164.66-28.12Q166.52-28.12 168.15-27.08 169.77-26.03 170.76-24.03 171.75-22.02 171.75-19.23L171.75-19.23 171.75 0 176.22 0Q176.69 0 176.89-0.2 177.09-0.41 177.09-0.87L177.09-0.87 177.09-19.46Q177.09-23.82 175.61-26.81 174.13-29.81 171.66-31.29 169.19-32.77 166.35-32.77L166.35-32.77Q163.44-32.77 160.77-31.32 158.1-29.86 156.29-27.19L156.29-27.19 156.29-32.54 151.47-32.54 151.47 0 155.95 0Z" transform="translate(-2.9100000858306885, 43.52000045776367)"></path></g> <!----> <!----> <!----> <!----> <!----> <!----> <!----></g></g> <!----></g></g></g></svg>